<svg width="24" height="24" viewBox="0 0 24 24" fill="none" xmlns="http://www.w3.org/2000/svg">
<path d="M12 2C8.68629 2 6 4.68629 6 8V20C6 21.1046 6.89543 22 8 22H20C21.1046 22 22 21.1046 22 20V8C22 4.68629 19.3137 2 16 2H12ZM12 4H16C18.2091 4 20 5.79086 20 8V19.167C19.3087 19.6896 18.2393 20 17 20H8C7.44772 20 7 19.5523 7 19V8C7 5.79086 8.79086 4 11 4H12ZM10 10H18V12H10V10ZM10 14H18V16H10V14Z" fill="#eab308"/>
<path d="M11 4C8.79086 4 7 5.79086 7 8V19C7 19.5523 7.44772 20 8 20H17C18.2393 20 19.3087 19.6896 20 19.167V8C20 5.79086 18.2091 4 16 4H11Z" fill="#121212"/>
<path d="M11 4H16C18.2091 4 20 5.79086 20 8V19.167C19.3087 19.6896 18.2393 20 17 20H8C7.44772 20 7 19.5523 7 19V8C7 5.79086 8.79086 4 11 4Z" fill="#eab308"/>
<path d="M12 4H16C18.2091 4 20 5.79086 20 8V19.167C19.3087 19.6896 18.2393 20 17 20H8C7.44772 20 7 19.5523 7 19V8C7 5.79086 8.79086 4 11 4H12Z" fill="#121212"/>
<rect x="10" y="10" width="8" height="2" fill="#eab308"/>
<rect x="10" y="14" width="8" height="2" fill="#eab308"/>
</svg>